<?xml version="1.0" standalone="no"?>
<!DOCTYPE svg PUBLIC "-//W3C//DTD SVG 20010904//EN"
 "http://www.w3.org/TR/2001/REC-SVG-20010904/DTD/svg10.dtd">
<svg version="1.0" xmlns="http://www.w3.org/2000/svg"
 width="512.000000pt" height="512.000000pt" viewBox="0 0 512.000000 512.000000"
 preserveAspectRatio="xMidYMid meet">

<g transform="translate(0.000000,512.000000) scale(0.100000,-0.100000)"
fill="#000000" stroke="none">
<path d="M352 4833 c-18 -9 -43 -30 -55 -47 l-22 -31 0 -2195 0 -2195 22 -31
c50 -69 -143 -64 2263 -64 2406 0 2213 -5 2263 64 l22 31 0 2195 0 2195 -22
31 c-50 69 143 64 -2265 64 -1981 0 -2176 -2 -2206 -17z m4178 -2273 l0 -1970
-1970 0 -1970 0 0 1970 0 1970 1970 0 1970 0 0 -1970z"/>
</g>
</svg>
